<?xml version="1.0" standalone="no"?><!DOCTYPE svg PUBLIC "-//W3C//DTD SVG 1.1//EN" "http://www.w3.org/Graphics/SVG/1.1/DTD/svg11.dtd"><svg t="1501205868140" class="icon" style="" viewBox="0 0 1024 1024" version="1.1" xmlns="http://www.w3.org/2000/svg" p-id="4877" xmlns:xlink="http://www.w3.org/1999/xlink" width="200" height="200"><defs><style type="text/css"></style></defs><path d="M690.574606 582.63371c-6.451946 8.097422-12.929474 16.07307-19.396769 23.901363 127.588887 23.741727 215.938074 75.075883 215.938074 134.588301 0 82.090647-168.07702 148.639319-375.410112 148.639319s-375.410112-66.547649-375.410112-148.639319c0-59.513442 88.349187-110.847597 215.938074-134.588301-6.466272-7.828292-12.944823-15.802918-19.396769-23.901363C174.599062 612.948133 63.980685 682.239266 63.980685 762.886027c0 108.569718 200.453405 196.583261 447.724091 196.583261s447.724091-88.013543 447.724091-196.583261C959.429891 682.239266 848.811514 612.948133 690.574606 582.63371zM247.357156 728.502939c0 59.900252 118.352525 108.460224 264.34762 108.460224s264.34762-48.558949 264.34762-108.460224c0-39.624463-51.798736-74.27975-129.119753-93.205798-5.198395 6.04774-10.355859 11.976776-15.4509 17.768689 47.994084 13.426801 79.012541 34.721803 79.012541 58.699913 0 40.62014-89.002057 73.54911-198.790532 73.54911s-198.790532-32.92897-198.790532-73.54911c0-23.978111 31.018457-45.273113 79.012541-58.699913-5.094018-5.791913-10.251481-11.720949-15.4509-17.768689C299.155892 654.223189 247.357156 688.878476 247.357156 728.502939zM511.705799 64.021106c-136.560212 0-247.264547 110.704334-247.264547 247.264547s247.264547 370.897332 247.264547 370.897332 247.264547-234.336096 247.264547-370.897332S648.266012 64.021106 511.705799 64.021106zM511.705799 371.315864c-59.931974 0-108.516506-48.584532-108.516506-108.516506s48.584532-108.516506 108.516506-108.516506c59.931974 0 108.516506 48.584532 108.516506 108.516506S571.637774 371.315864 511.705799 371.315864z" p-id="4878" fill="#00bcff"></path></svg>