<?xml version="1.0" standalone="no"?><!DOCTYPE svg PUBLIC "-//W3C//DTD SVG 1.1//EN" "http://www.w3.org/Graphics/SVG/1.1/DTD/svg11.dtd"><svg t="1501132103445" class="icon" style="" viewBox="0 0 1024 1024" version="1.1" xmlns="http://www.w3.org/2000/svg" p-id="1000" xmlns:xlink="http://www.w3.org/1999/xlink" width="200" height="200"><defs><style type="text/css"></style></defs><path d="M786.048 539.319c0.629-1.26 1.731-2.362 2.205-3.62 11.022-22.989 7.402-51.33-12.123-69.753l-444.965-420.875c-24.249-22.989-62.51-21.886-85.499 2.362s-21.886 62.51 2.362 85.499l399.305 377.734-397.728 383.244c-24.091 23.148-24.72 61.407-1.573 85.499 11.809 12.282 27.712 18.579 43.457 18.58 15.115 0 30.231-5.667 41.883-17.006l440.871-424.967c0.787-0.787 1.103-2.046 2.046-2.834 0.63-0.63 1.26-1.103 2.046-1.731 3.62-3.62 5.354-8.031 7.714-12.123v0zM786.048 539.319z" p-id="1001" fill="#e6e6e6"></path></svg>